inDegrees=no
num_controls=7
num_derivatives=13
num_iterations=117
num_multipliers=7
num_parameters=0
num_slacks=7
num_states=26
objective=0.497125
objective_accelerations=0.032397
objective_balance=0.003269
objective_effort=0.035070
objective_height=0.420897
objective_ligament=0.005492
solver_duration=1320.210329
status=Solve_Succeeded
success=true
DataType=double
version=3
OpenSimVersion=4.5
endheader
time	/jointset/ground_pelvis/pelvis_tilt/value	/jointset/ground_pelvis/pelvis_tx/value	/jointset/ground_pelvis/pelvis_ty/value	/jointset/hip_r/hip_flexion_r/value	/jointset/hip_r/hip_adduction_r/value	/jointset/hip_r/hip_rotation_r/value	/jointset/back/lumbar_extension/value	/jointset/patellofemoral_r/patellar_flexion_r/value	/jointset/knee_r/knee_flexion_r/value	/jointset/knee_r/knee_adduction_r/value	/jointset/knee_r/knee_rotation_r/value	/jointset/ankle_r/ankle_angle_r/value	/jointset/subtalar_r/subtalar_angle_r/value	/jointset/ground_pelvis/pelvis_tilt/speed	/jointset/ground_pelvis/pelvis_tx/speed	/jointset/ground_pelvis/pelvis_ty/speed	/jointset/hip_r/hip_flexion_r/speed	/jointset/hip_r/hip_adduction_r/speed	/jointset/hip_r/hip_rotation_r/speed	/jointset/back/lumbar_extension/speed	/jointset/patellofemoral_r/patellar_flexion_r/speed	/jointset/knee_r/knee_flexion_r/speed	/jointset/knee_r/knee_adduction_r/speed	/jointset/knee_r/knee_rotation_r/speed	/jointset/ankle_r/ankle_angle_r/speed	/jointset/subtalar_r/subtalar_angle_r/speed	/forceset/tau_hip_flexion_r	/forceset/tau_hip_adduction_r	/forceset/tau_hip_rotation_r	/forceset/tau_knee_flexion_r	/forceset/tau_ankle_angle_r	/forceset/tau_subtalar_angle_r	/forceset/tau_lumbar_extension	lambda_cid13_p0	lambda_cid14_p0	lambda_cid14_p1	lambda_cid14_p2	lambda_cid14_p3	lambda_cid14_p4	lambda_cid14_p5	/jointset/ground_pelvis/pelvis_tilt/accel	/jointset/ground_pelvis/pelvis_tx/accel	/jointset/ground_pelvis/pelvis_ty/accel	/jointset/hip_r/hip_flexion_r/accel	/jointset/hip_r/hip_adduction_r/accel	/jointset/hip_r/hip_rotation_r/accel	/jointset/back/lumbar_extension/accel	/jointset/patellofemoral_r/patellar_flexion_r/accel	/jointset/knee_r/knee_flexion_r/accel	/jointset/knee_r/knee_adduction_r/accel	/jointset/knee_r/knee_rotation_r/accel	/jointset/ankle_r/ankle_angle_r/accel	/jointset/subtalar_r/subtalar_angle_r/accel	gamma_cid13_p0	gamma_cid14_p0	gamma_cid14_p1	gamma_cid14_p2	gamma_cid14_p3	gamma_cid14_p4	gamma_cid14_p5
1.5	-0.1077600521506756	0.06179682252841033	0.8713175034967743	0.6643537614067837	-0.2275265994519706	-0.1440065808690312	-0.2801212132601217	0.6436497042490004	0.6436497042492041	0.0419393880240767	0.1745024342876003	0.2570722746450232	0.05837806626684702	0.2320745627765485	0.1163006233257184	0.3227506195231368	-1.438877547853951	0.01901252887385608	-0.2809305419230101	0.7014080605234444	-1.738070266687527	-1.738070266687413	0.2764808243204465	2.653153260017297e-05	-0.6207570833650079	-0.1526967608441968	-0.06503169937066222	-0.01645311206913372	0.006630936362712459	-0.3219350404829053	0.05552138972493821	-0.01214909008748658	0.1222729281379416	-34.42245961342746	-23.93907115316193	-5.437218873000501	-3.277206527032533	3.269289972550182	-662.6506594200017	57.19367350368003	0.05010214388544151	0.2663678946149241	-0.4433466008783206	-0.7208207831632395	-0.02085443086606499	-0.5481819282095352	1.203711884061364	-1.004394869061602	-1.004394869061608	0.388909019577023	-0.002460301653605444	-0.454010638730623	-0.0336860902087145	1.155295200280038e-07	1.521916331083638e-07	-5.769155028509566e-07	1.231249358652526e-06	-1.916985440331972e-08	1.833427537172358e-07	-8.939284858801437e-07
1.51	-0.1054372128856812	0.06297296676387559	0.8745221124821949	0.6499309466338714	-0.2273382690173992	-0.1468424125376082	-0.273047940672806	0.6262212818835398	0.6262212818835471	0.04472539120871359	0.1745028336748086	0.2508426347280834	0.05684858948248615	0.2324605115827963	0.1189078092176164	0.3181025301781853	-1.445476482925552	0.01865351519417234	-0.2862192182893118	0.7131323334263115	-1.747354445131853	-1.747354445131631	0.2807015601121578	4.905663328346268e-05	-0.6250800349937469	-0.1531716088894788	-0.05945838789106148	-0.01844170475889532	0.005981759848219207	-0.3189069054397271	0.05966968057670299	-0.0128710700599109	0.1170777640856166	-35.311284613102	-22.47986701734739	-5.382972647890845	-3.414134953545755	2.760377723351612	-659.5435721001232	57.37899586224215	0.02793928046864652	0.2548316619287401	-0.4857984423222516	-0.5980729944653913	-0.04329051298045411	-0.5165171952219859	1.13966646638503	-0.8514912451588171	-0.8514912451426805	0.4358830940132226	0.004185036817102837	-0.4077920424251501	-0.05030805236838888	1.254231115033914e-07	1.536861083444539e-07	-7.044441593677774e-07	1.25364275710743e-06	-6.821685674949719e-09	1.902656528132905e-07	-9.846904827976093e-07
1.52	-0.1031114945263293	0.06417457040335012	0.8776781889059621	0.635448413885182	-0.2271535018549162	-0.149730592310725	-0.2658608490618645	0.6087078053510273	0.6087078053508401	0.04755304719827701	0.1745033735372008	0.2445724943713602	0.05531517943953639	0.2326503816480119	0.1213925041275729	0.3130441071924867	-1.450821143009426	0.01829987445605136	-0.291400162830873	0.7241718652486041	-1.755081100097807	-1.755081100097477	0.2848113853056699	5.462656947904723e-05	-0.6288571713216704	-0.153483412561979	-0.05388507641146071	-0.02043029744865747	0.005332583333725304	-0.3158787703965487	0.06381797142846768	-0.01359305003233596	0.1118826000332918	-36.16648390860118	-21.02935976560424	-5.327623093701562	-3.554239772895997	2.247065965767831	-656.5798428568496	57.63744184770308	0.01088639567897363	0.2418696982266401	-0.5254133290277654	-0.4699657856179232	-0.01977984255351665	-0.5266355632614043	1.066763667946407	-0.6928901733870098	-0.6928901733870226	0.3667268999371586	-0.005851334551147486	-0.3448475785675171	-0.001077215652366781	1.349870255382602e-07	1.542752904655234e-07	-8.274785694511377e-07	1.269474823913368e-06	5.683137898575951e-09	1.948915376147957e-07	-1.067724279236974e-06
1.53	-0.1007848781699063	0.06540038080776846	0.8807816875558888	0.6209187394242075	-0.2269722986041471	-0.152670234153436	-0.2585668376696817	0.5911249037924069	0.5911249037923044	0.05042123079429491	0.1745040971933089	0.2382673246694737	0.05377940069931918	0.2326402019921577	0.1237460698649805	0.3075933054399072	-1.454900961752028	0.01794064683373675	-0.2965056485046473	0.7345076979082825	-1.761232672976304	-1.761232672976196	0.2888073680307144	8.491211243748982e-05	-0.6320826290485058	-0.15364625863145	-0.04825802332471917	-0.02255747215894841	0.004700941719849003	-0.3129441054659304	0.0680812054168233	-0.01443467014386157	0.1066614741524725	-36.98353503376767	-19.55730357968482	-5.327465698171429	-3.677542615382333	1.746208254432164	-653.7500912024444	57.84186999588646	-0.0118584230015275	0.2285790054429152	-0.5642215519640272	-0.3450537124332834	-0.04389491342413879	-0.4988968077083827	0.9985857730217002	-0.5363398742129939	-0.5363398742462495	0.4132748709153758	0.006911731341538833	-0.2972530863451606	-0.01998416596303251	1.442006572925777e-07	1.539025986518837e-07	-9.457378426989461e-07	1.27833547584228e-06	1.835440724507951e-08	1.97076844728342e-07	-1.142546862668357e-06
1.54	-0.09845934126539858	0.06664902266834991	0.8838288165975714	0.6063546540170368	-0.2267946677678711	-0.1556602092005399	-0.2511731494092935	0.5734884766991745	0.5734884766991556	0.05332882239998889	0.174505012351371	0.2319327287469981	0.05224277432573358	0.2324344912649473	0.12595879536019	0.3017701855436876	-1.457703332248711	0.01758539155727372	-0.3014668037093394	0.7441072388896864	-1.765786207020078	-1.765786207020192	0.2926929872408496	9.292696028385849e-05	-0.6347424154394856	-0.1536529392356635	-0.04263097023797752	-0.02468464686923987	0.004069300105976488	-0.310009440535312	0.07234443940517879	-0.01527629025538797	0.1014403482716535	-37.75794092458754	-18.09457979490726	-5.325901156038695	-3.8045444151946	1.241282923601382	-651.0764057090179	58.1237854547816	-0.02821981859226016	0.213701649787025	-0.59987695775578	-0.2144761364342035	-0.01898537338320079	-0.4977694694449639	0.9195053322914996	-0.3732824064424937	-0.3732824064424908	0.344654196955272	-0.01030547357356412	-0.2317133113964312	0.03015587739913027	1.538893851717678e-07	1.526985235267477e-07	-1.071556410756964e-06	1.281418045184394e-06	3.215641516048139e-08	1.976911862906274e-07	-1.215929943991212e-06
1.55	-0.09613688557278831	0.06791906989699796	0.8868159212625965	0.5917689638100948	-0.2266206050413923	-0.1586993388339585	-0.2436871575067581	0.5558145241861372	0.5558145241861631	0.0562746425195244	0.1745061520942355	0.2255743743046073	0.05070682394911508	0.2320214137192205	0.1280251164986864	0.2955957752382479	-1.459218458299496	0.0172280242947483	-0.3063309820610134	0.7529642336693656	-1.768735126355371	-1.768735126355317	0.2964507872278179	0.0001278735161153611	-0.6368316393885154	-0.1535106593694413	-0.0369383313211887	-0.02697255892918556	0.003443434317877189	-0.3072407390075118	0.07682328371675802	-0.01625576007136366	0.09619995827344494	-38.48524690561356	-16.58110096412137	-5.382459160117721	-3.914122012618797	0.7205618025817085	-648.5860367283943	58.35429653463874	-0.05312211541825564	0.1992783958371338	-0.6344297341514761	-0.08757579867550934	-0.04389480392656377	-0.4762807298546092	0.8497603585942003	-0.2153552747132877	-0.2153552746881218	0.3882046927208997	0.009544112273555658	-0.1829751490104577	0.01018460330264246	1.641255064122242e-07	1.505365502383661e-07	-1.206084601096309e-06	1.277843258502588e-06	4.726123055743997e-08	1.964955023264601e-07	-1.287654468536849e-06
